<svg aria-hidden="true" style="position:absolute;width:0;height:0;overflow:hidden" xmlns="http://www.w3.org/2000/svg">
  <defs>
    <symbol id="icon-checkbox" viewBox="0 0 32 32">
      <path d="M0 0h32v32H0V0z"/>
      <path d="M25.583 8.472a1.515 1.515 0 0 1-.055 2.142L13.407 22.129a1.515 1.515 0 0 1-2.115-.027l-4.848-4.848a1.515 1.515 0 1 1 2.143-2.143l3.804 3.804L23.442 8.417a1.515 1.515 0 0 1 2.142.055z"/>
    </symbol>
    <symbol id="icon-user" viewBox="0 0 32 32">
      <path d="M18 22.082v-1.649c2.203-1.241 4-4.337 4-7.432 0-4.971 0-9-6-9s-6 4.029-6 9c0 3.096 1.797 6.191 4 7.432v1.649C7.216 22.637 2 25.97 2 30h28c0-4.03-5.216-7.364-12-7.918z"/>
    </symbol>
    <symbol id="icon-cancel-circle" viewBox="0 0 32 32">
      <path d="M16 0C7.163 0 0 7.163 0 16s7.163 16 16 16 16-7.163 16-16S24.837 0 16 0zm0 29C8.82 29 3 23.18 3 16S8.82 3 16 3s13 5.82 13 13-5.82 13-13 13z"/>
      <path d="m21 8-5 5-5-5-3 3 5 5-5 5 3 3 5-5 5 5 3-3-5-5 5-5z"/>
    </symbol>
    <symbol id="icon-checkbox-checked" viewBox="0 0 32 32">
      <path d="M28 0H4C1.8 0 0 1.8 0 4v24c0 2.2 1.8 4 4 4h24c2.2 0 4-1.8 4-4V4c0-2.2-1.8-4-4-4zM14 24.828l-7.414-7.414 2.828-2.828L14 19.172l9.586-9.586 2.828 2.828L14 24.828z"/>
    </symbol>
  </defs>
</svg>
